<?xml version="1.0" encoding="UTF-8"?>
<!DOCTYPE svg PUBLIC "-//W3C//DTD SVG 1.1//EN" "http://www.w3.org/Graphics/SVG/1.1/DTD/svg11.dtd">
<!-- Creator: CorelDRAW 2019 (64-Bit) -->
<svg xmlns="http://www.w3.org/2000/svg" xml:space="preserve" width="1000px" height="1000px" version="1.1" shape-rendering="geometricPrecision" text-rendering="geometricPrecision" image-rendering="optimizeQuality" fill-rule="evenodd" clip-rule="evenodd"
viewBox="0 0 20.1 20.1"
 xmlns:xlink="http://www.w3.org/1999/xlink">
 <g id="Katman_x0020_1">
  <metadata id="CorelCorpID_0Corel-Layer"/>
  <g id="_1313469777184">
   <rect fill="none" width="20.1" height="20.1"/>
   <path fill="black" fill-rule="nonzero" d="M10.09 2.68c-0.66,-0.11 -1.37,-0.17 -2.12,-0.17 -0.75,0 -1.46,0.06 -2.12,0.17 -0.67,0.12 -1.29,0.28 -1.81,0.49 -0.6,0.25 -1.09,0.56 -1.42,0.93 -0.32,0.35 -0.49,0.75 -0.49,1.18 0,0.43 0.17,0.83 0.49,1.18 0.33,0.36 0.82,0.68 1.42,0.92 0.52,0.21 1.14,0.38 1.81,0.5 0.66,0.11 1.37,0.17 2.12,0.17 0.34,0 0.67,-0.01 0.99,-0.04 -0.46,0.22 -0.84,0.47 -1.11,0.76 -0.64,-0.01 -1.25,-0.06 -1.81,-0.15 -0.61,-0.1 -1.16,-0.25 -1.62,-0.44 -0.29,-0.12 -0.54,-0.25 -0.73,-0.37 -0.18,-0.12 -0.31,-0.24 -0.38,-0.35l-1.17 0c0.05,0.38 0.24,0.73 0.54,1.04 0.33,0.33 0.8,0.62 1.36,0.85 0.52,0.21 1.14,0.38 1.81,0.5 0.46,0.08 0.95,0.13 1.45,0.15 0,0.26 0.06,0.5 0.17,0.73 -0.23,-0.02 -0.47,-0.02 -0.71,-0.02 -0.75,0 -1.46,0.06 -2.12,0.17 -0.68,0.11 -1.29,0.28 -1.81,0.49 -0.6,0.25 -1.09,0.56 -1.42,0.93 -0.32,0.35 -0.5,0.75 -0.5,1.18 0,0.43 0.18,0.83 0.5,1.18 0.33,0.36 0.82,0.68 1.42,0.92 0.52,0.21 1.13,0.38 1.81,0.5 0.66,0.11 1.37,0.17 2.12,0.17 0.75,0 1.46,-0.06 2.11,-0.17 0.68,-0.12 1.3,-0.29 1.81,-0.5 0.58,-0.23 1.06,-0.53 1.39,-0.88 0.35,0.03 0.71,0.05 1.07,0.05 0.75,0 1.47,-0.06 2.12,-0.18 0.68,-0.11 1.29,-0.28 1.81,-0.49 0.57,-0.23 1.03,-0.52 1.36,-0.86 0.31,-0.31 0.49,-0.66 0.54,-1.04l-1.16 0c-0.07,0.12 -0.2,0.24 -0.38,0.35 -0.19,0.13 -0.44,0.26 -0.74,0.38 -0.45,0.18 -1,0.33 -1.62,0.43 -0.59,0.1 -1.24,0.16 -1.93,0.16 -0.18,0 -0.36,-0.01 -0.54,-0.02l0 0c0,-0.26 -0.06,-0.5 -0.17,-0.72 0.23,0.01 0.47,0.02 0.71,0.02 0.75,0 1.47,-0.07 2.12,-0.18 0.68,-0.11 1.29,-0.28 1.81,-0.49 0.61,-0.25 1.09,-0.56 1.43,-0.93 0.31,-0.35 0.49,-0.74 0.49,-1.18 0,-0.43 -0.18,-0.82 -0.49,-1.17 -0.34,-0.37 -0.82,-0.68 -1.43,-0.93 -0.52,-0.21 -1.13,-0.38 -1.81,-0.49 -0.65,-0.12 -1.37,-0.18 -2.12,-0.18 -0.33,0 -0.66,0.02 -0.98,0.04 0.48,-0.23 0.88,-0.5 1.16,-0.81 0.32,-0.35 0.49,-0.75 0.49,-1.18 0,-0.43 -0.17,-0.83 -0.49,-1.18 -0.33,-0.37 -0.82,-0.68 -1.42,-0.93 -0.52,-0.21 -1.14,-0.37 -1.81,-0.49zm1.96 14.01c0.3,-0.31 0.49,-0.66 0.54,-1.04l-1.17 0c-0.07,0.12 -0.2,0.24 -0.38,0.36 -0.19,0.12 -0.44,0.25 -0.73,0.37 -0.46,0.18 -1.01,0.33 -1.63,0.44 -0.59,0.09 -1.24,0.15 -1.92,0.15 -0.69,0 -1.34,-0.06 -1.93,-0.15 -0.61,-0.11 -1.16,-0.26 -1.62,-0.44 -0.3,-0.12 -0.54,-0.25 -0.74,-0.37 -0.17,-0.12 -0.3,-0.24 -0.37,-0.36l-1.17 0c0.05,0.38 0.24,0.73 0.54,1.04 0.33,0.34 0.79,0.63 1.36,0.86 0.52,0.21 1.13,0.38 1.81,0.5 0.66,0.11 1.37,0.17 2.12,0.17 0.75,0 1.46,-0.06 2.11,-0.17 0.68,-0.12 1.3,-0.29 1.81,-0.5 0.57,-0.23 1.04,-0.52 1.37,-0.86zm-3.37 -4.58c0.62,0.1 1.17,0.25 1.63,0.44 0.36,0.15 0.66,0.3 0.86,0.46 0.16,0.12 0.26,0.25 0.3,0.37l0 0 0 0 0 0 0 0.01 0 0 0 0 0 0 0 0 0 0 0 0.01 0 0 0.01 0 0 0 0 0 0 0 0 0 0 0 0 0.01 0 0 0 0 0 0 0 0 0 0 0 0 0 0 0 0.01 0 0 0 0 0 0 0 0 0 0 0 0 0 0 0 0.01 0 0 0 0 0 0 0 0 0 0 0 0 0 0 0 0 0 0.01 0 0 0 0 0 0 0 0 0 0.01 0 0 0 0 0 0 0 0 0 0 0 0.01 0 0 0 0 0 0 0 0 0 0 0 0.01 0 0 0 0 0 0 0 0 0 0 0 0.01 0 0 0 0c0,0.15 -0.11,0.31 -0.31,0.47 -0.2,0.15 -0.5,0.31 -0.86,0.46l-0.03 0.01c-0.45,0.18 -0.99,0.33 -1.6,0.43 -0.59,0.09 -1.24,0.15 -1.92,0.15 -0.69,0 -1.34,-0.06 -1.93,-0.15 -0.61,-0.11 -1.16,-0.26 -1.62,-0.44 -0.37,-0.15 -0.66,-0.31 -0.86,-0.46 -0.21,-0.16 -0.32,-0.32 -0.32,-0.47 0,-0.15 0.11,-0.31 0.32,-0.47 0.2,-0.16 0.49,-0.31 0.86,-0.46 0.46,-0.19 1.01,-0.34 1.62,-0.44 0.59,-0.1 1.24,-0.15 1.93,-0.15 0.68,0 1.33,0.05 1.92,0.15zm6.39 -3.47c0.62,0.1 1.17,0.25 1.62,0.43 0.37,0.15 0.66,0.31 0.87,0.47 0.2,0.15 0.31,0.31 0.31,0.46 0,0.16 -0.11,0.32 -0.31,0.47 -0.21,0.16 -0.5,0.32 -0.87,0.46 -0.45,0.19 -1,0.34 -1.62,0.44 -0.59,0.1 -1.24,0.15 -1.93,0.15 -0.68,0 -1.33,-0.05 -1.92,-0.15 -0.62,-0.1 -1.17,-0.25 -1.62,-0.44 -0.37,-0.14 -0.66,-0.3 -0.87,-0.46 -0.2,-0.15 -0.31,-0.31 -0.31,-0.46l0 -0.01c0,-0.15 0.11,-0.31 0.31,-0.46 0.21,-0.16 0.5,-0.32 0.87,-0.47 0.45,-0.18 1,-0.33 1.62,-0.43 0.59,-0.1 1.24,-0.16 1.92,-0.16l0.01 0 0 0 0 0 0 0 0 0 0.01 0 0 0 0 0 0 0 0 0 0.01 0 0 0 0 0 0 0 0 0 0.01 0 0 0 0 0 0 0 0 0 0 0 0.01 0 0 0 0 0 0 0.01 0 0 0.01 0 0 0 0 0 0 0 0 0 0 0 0.01 0 0 0 0 0 0 0 0 0 0 0 0.01 0 0 0 0 0 0 0 0 0 0.01 0 0 0 0 0 0 0 0 0 0.01 0 0 0 0 0 0 0 0 0 0 0 0.01 0 0 0 0 0 0 0 0 0 0.01 0 0 0 0 0 0 0 0 0 0 0 0.01 0 0 0c0.64,0 1.25,0.06 1.8,0.15zm-5.17 -4.73c0.61,0.1 1.16,0.25 1.62,0.44 0.36,0.15 0.66,0.3 0.86,0.46 0.2,0.16 0.32,0.32 0.32,0.47 0,0.15 -0.12,0.31 -0.32,0.47 -0.2,0.15 -0.5,0.31 -0.86,0.46 -0.46,0.18 -1.01,0.33 -1.62,0.44 -0.59,0.09 -1.25,0.15 -1.93,0.15 -0.68,0 -1.33,-0.06 -1.93,-0.15 -0.61,-0.11 -1.16,-0.26 -1.62,-0.44 -0.36,-0.15 -0.66,-0.31 -0.86,-0.46 -0.2,-0.16 -0.32,-0.32 -0.32,-0.47 0,-0.15 0.12,-0.31 0.32,-0.47 0.2,-0.16 0.5,-0.31 0.86,-0.46 0.46,-0.19 1.01,-0.34 1.62,-0.44 0.6,-0.1 1.25,-0.15 1.93,-0.15 0.68,0 1.34,0.05 1.93,0.15z"/>
   <rect fill="none" width="20.1" height="20.1"/>
  </g>
 </g>
</svg>
